# xmcd
#
# Track frame offsets: 
#        150
#        12945
#        35030
#        51338
#        64960
#        94075
#        129108
#        146360
#        173153
#        196790
#        210308
#
# Disc length: 3156 seconds
#
# Revision: 6
# Processed by: cddbd v1.5.2PL0 Copyright (c) Steve Scherf et al.
# Submitted via: ExactAudioCopy v0.95a5
#
DISCID=920c520b
DTITLE=Muddy Waters - In Concert
DYEAR=1993
DGENRE=Blues
TTITLE0=Baby Please Don't Go
TTITLE1=Soon Forgotten
TTITLE2=Corrina, Corrina
TTITLE3=Hoochie Coochie Man
TTITLE4=Howlin' Wolf
TTITLE5=Floyd's Blues
TTITLE6=Blow Wind Blow
TTITLE7=Caldonia
TTITLE8=Screamin' and Cryin'
TTITLE9=I Got My Mojo Working
TTITLE10=Garbage Man
EXTD=Part of the "Revue" collection\nREV424
EXTT0=
EXTT1=
EXTT2=
EXTT3=
EXTT4=
EXTT5=
EXTT6=
EXTT7=
EXTT8=
EXTT9=
EXTT10=
PLAYORDER=
